<svg width="100" height="100" viewBox="0 0 100 100" fill="none" xmlns="http://www.w3.org/2000/svg">
<path d="M42 5.99999L42 12L34 12C29.582 12 26 15.582 26 20L26 84C26 88.418 29.582 92 34 92L66 92C70.418 92 74 88.418 74 84L74 20C74 15.582 70.418 12 66 12L58 12L58 5.99999L42 5.99999Z" stroke="#999999" stroke-width="2" stroke-miterlimit="10" stroke-linecap="round" stroke-linejoin="round"/>
<path d="M51.0896 72.4138C51.293 72.8613 51.7915 73.0946 52.2654 72.9641C52.7393 72.8337 53.0482 72.3781 52.9939 71.8896L51.1173 55L58 55C58.34 55 58.6567 54.8272 58.8408 54.5414C59.0248 54.2555 59.0511 53.8957 58.9104 53.5862L48.9104 31.5862C48.707 31.1387 48.2085 30.9054 47.7346 31.0359C47.2607 31.1663 46.9518 31.6219 47.0061 32.1104L48.8827 49L42 49C41.66 49 41.3433 49.1728 41.1592 49.4586C40.9752 49.7445 40.9489 50.1043 41.0896 50.4138L51.0896 72.4138Z" stroke="#009EFF" stroke-width="2" stroke-linejoin="round"/>
<path d="M30.769 21.1538L30.769 50" stroke="#009EFF" stroke-width="2" stroke-linecap="round"/>
<path d="M30.769 55.769L30.769 66.346" stroke="#009EFF" stroke-width="2" stroke-linecap="round"/>
</svg>
