<svg width="97" height="100" viewBox="0 0 97 100" fill="none" xmlns="http://www.w3.org/2000/svg">
<g clip-path="url(#clip0_125_925)">
<path d="M66.4905 63.7969C65.1732 64.8271 64.098 66.1502 63.3449 67.6678C62.5919 69.1853 62.1802 70.8584 62.1406 72.5625" stroke="#009EFF" stroke-width="2" stroke-linecap="round" stroke-linejoin="round"/>
<path d="M53.0469 85.0938V89.0625C53.0469 89.8913 52.7275 90.6862 52.159 91.2722C51.5906 91.8583 50.8196 92.1875 50.0156 92.1875H46.9844C46.1804 92.1875 45.4094 91.8583 44.841 91.2722C44.2725 90.6862 43.9531 89.8913 43.9531 89.0625V85.0938C44.8741 85.6445 45.9196 85.9356 46.9844 85.9375H50.0156C51.0804 85.9356 52.1259 85.6445 53.0469 85.0938V85.0938Z" stroke="#999999" stroke-width="2" stroke-linecap="round" stroke-linejoin="round"/>
<path d="M56.0781 73.4375V79.6875C56.0781 81.3451 55.4394 82.9348 54.3025 84.1069C53.1655 85.279 51.6235 85.9375 50.0156 85.9375H46.9844C45.3765 85.9375 43.8345 85.279 42.6975 84.1069C41.5606 82.9348 40.9219 81.3451 40.9219 79.6875V73.4375H56.0781Z" stroke="#999999" stroke-width="2" stroke-linecap="round" stroke-linejoin="round"/>
<path d="M71.2342 40.3438C71.2747 43.9053 70.5272 47.4295 69.0487 50.6487C67.5701 53.8678 65.3993 56.6972 62.7012 58.9219C60.6734 60.5358 59.0248 62.6005 57.878 64.9622C56.7313 67.3238 56.116 69.9217 56.0779 72.5625V73.4375H40.9217V72.5625C40.949 70.0079 40.4055 67.4811 39.3331 65.178C38.2608 62.8748 36.6884 60.8571 34.7379 59.2812C31.668 56.8739 29.2427 53.701 27.6902 50.061C26.1376 46.421 25.5089 42.4336 25.8632 38.474C26.2175 34.5145 27.5432 30.713 29.7154 27.4272C31.8877 24.1414 34.8351 21.4794 38.2804 19.6917C41.7257 17.904 45.5555 17.0493 49.4095 17.2082C53.2635 17.367 57.0149 18.5341 60.3108 20.5996C63.6067 22.6651 66.3386 25.5611 68.2495 29.0152C70.1605 32.4692 71.1876 36.3677 71.2342 40.3438V40.3438Z" stroke="#999999" stroke-width="2" stroke-linecap="round" stroke-linejoin="round"/>
<path d="M45.4688 73.4375V54.6875" stroke="#999999" stroke-width="2" stroke-linecap="round" stroke-linejoin="round"/>
<path d="M51.5312 73.4375V54.6875" stroke="#999999" stroke-width="2" stroke-linecap="round" stroke-linejoin="round"/>
<path d="M45.4688 54.6875L36.375 45.3125" stroke="#999999" stroke-width="2" stroke-linecap="round" stroke-linejoin="round"/>
<path d="M51.5312 54.6875L60.625 45.3125" stroke="#999999" stroke-width="2" stroke-linecap="round" stroke-linejoin="round"/>
<path d="M39.4062 24.3906C42.1691 22.7396 45.3065 21.8717 48.5 21.875" stroke="#009EFF" stroke-width="2" stroke-linecap="round" stroke-linejoin="round"/>
<path d="M30.3125 40.625C30.3129 36.4194 31.6848 32.3361 34.2077 29.0312" stroke="#009EFF" stroke-width="2" stroke-linecap="round" stroke-linejoin="round"/>
<path d="M48.5 12.5V6.25" stroke="#009EFF" stroke-width="2" stroke-linecap="round" stroke-linejoin="round"/>
<path d="M29.2062 20.7344L24.917 16.3125" stroke="#009EFF" stroke-width="2" stroke-linecap="round" stroke-linejoin="round"/>
<path d="M21.2188 40.625H15.1562" stroke="#009EFF" stroke-width="2" stroke-linecap="round" stroke-linejoin="round"/>
<path d="M75.7812 40.625H81.8438" stroke="#009EFF" stroke-width="2" stroke-linecap="round" stroke-linejoin="round"/>
<path d="M67.7939 20.7344L72.0832 16.3125" stroke="#009EFF" stroke-width="2" stroke-linecap="round" stroke-linejoin="round"/>
<path d="M40.9219 78.125H56.0781" stroke="#999999" stroke-width="2" stroke-linecap="round" stroke-linejoin="round"/>
</g>
<defs>
<clipPath id="clip0_125_925">
<rect width="97" height="100" fill="white"/>
</clipPath>
</defs>
</svg>
